<mxfile host="app.diagrams.net" modified="2020-10-22T21:45:45.650Z" agent="5.0 (Windows)" etag="WPxvIvuaQL6gao4qVSYd" version="13.8.1" type="github">
  <diagram id="0fKyiCqdGfYzrdNGeuZN" name="Page-1">
    <mxGraphModel dx="3166" dy="1317" grid="1" gridSize="10" guides="1" tooltips="1" connect="1" arrows="1" fold="1" page="1" pageScale="1" pageWidth="1600" pageHeight="900" math="0" shadow="0">
      <root>
        <mxCell id="0" />
        <mxCell id="1" parent="0" />
        <mxCell id="T7yRqZnU3iM2HwVuO0ZW-1" value="Cliente" style="shape=ext;margin=3;double=1;whiteSpace=wrap;html=1;align=center;" parent="1" vertex="1">
          <mxGeometry x="240" y="140" width="120" height="40" as="geometry" />
        </mxCell>
        <mxCell id="T7yRqZnU3iM2HwVuO0ZW-5" value="Hace" style="shape=rhombus;perimeter=rhombusPerimeter;whiteSpace=wrap;html=1;align=center;" parent="1" vertex="1">
          <mxGeometry x="480" y="130" width="120" height="60" as="geometry" />
        </mxCell>
        <mxCell id="T7yRqZnU3iM2HwVuO0ZW-8" value="idCliente" style="ellipse;whiteSpace=wrap;html=1;align=center;fontStyle=4;" parent="1" vertex="1">
          <mxGeometry x="80" y="80" width="120" height="40" as="geometry" />
        </mxCell>
        <mxCell id="T7yRqZnU3iM2HwVuO0ZW-10" value="&lt;div&gt;saldo&lt;/div&gt;" style="ellipse;whiteSpace=wrap;html=1;align=center;" parent="1" vertex="1">
          <mxGeometry x="80" y="200" width="120" height="40" as="geometry" />
        </mxCell>
        <mxCell id="T7yRqZnU3iM2HwVuO0ZW-11" value="&lt;div&gt;limCredito&lt;/div&gt;" style="ellipse;whiteSpace=wrap;html=1;align=center;" parent="1" vertex="1">
          <mxGeometry x="240" y="240" width="120" height="40" as="geometry" />
        </mxCell>
        <mxCell id="T7yRqZnU3iM2HwVuO0ZW-13" value="" style="endArrow=none;html=1;rounded=0;entryX=0;entryY=0;entryDx=0;entryDy=0;" parent="1" target="T7yRqZnU3iM2HwVuO0ZW-1" edge="1">
          <mxGeometry relative="1" as="geometry">
            <mxPoint x="200" y="100" as="sourcePoint" />
            <mxPoint x="360" y="100" as="targetPoint" />
          </mxGeometry>
        </mxCell>
        <mxCell id="T7yRqZnU3iM2HwVuO0ZW-14" value="" style="endArrow=none;html=1;rounded=0;entryX=0.5;entryY=0;entryDx=0;entryDy=0;exitX=0.5;exitY=1;exitDx=0;exitDy=0;" parent="1" target="T7yRqZnU3iM2HwVuO0ZW-1" edge="1">
          <mxGeometry relative="1" as="geometry">
            <mxPoint x="300" y="80" as="sourcePoint" />
            <mxPoint x="360" y="120" as="targetPoint" />
          </mxGeometry>
        </mxCell>
        <mxCell id="T7yRqZnU3iM2HwVuO0ZW-15" value="" style="endArrow=none;html=1;rounded=0;exitX=1;exitY=0.5;exitDx=0;exitDy=0;entryX=0;entryY=1;entryDx=0;entryDy=0;" parent="1" source="T7yRqZnU3iM2HwVuO0ZW-10" target="T7yRqZnU3iM2HwVuO0ZW-1" edge="1">
          <mxGeometry relative="1" as="geometry">
            <mxPoint x="100" y="180" as="sourcePoint" />
            <mxPoint x="260" y="180" as="targetPoint" />
          </mxGeometry>
        </mxCell>
        <mxCell id="T7yRqZnU3iM2HwVuO0ZW-16" value="" style="endArrow=none;html=1;rounded=0;exitX=0.5;exitY=1;exitDx=0;exitDy=0;entryX=0.5;entryY=0;entryDx=0;entryDy=0;" parent="1" source="T7yRqZnU3iM2HwVuO0ZW-1" target="T7yRqZnU3iM2HwVuO0ZW-11" edge="1">
          <mxGeometry relative="1" as="geometry">
            <mxPoint x="270" y="220" as="sourcePoint" />
            <mxPoint x="430" y="220" as="targetPoint" />
          </mxGeometry>
        </mxCell>
        <mxCell id="T7yRqZnU3iM2HwVuO0ZW-20" value="" style="endArrow=none;html=1;rounded=0;entryX=0;entryY=0.5;entryDx=0;entryDy=0;" parent="1" target="T7yRqZnU3iM2HwVuO0ZW-5" edge="1">
          <mxGeometry relative="1" as="geometry">
            <mxPoint x="360" y="160" as="sourcePoint" />
            <mxPoint x="470" y="160" as="targetPoint" />
          </mxGeometry>
        </mxCell>
        <mxCell id="T7yRqZnU3iM2HwVuO0ZW-38" value="" style="endArrow=none;html=1;rounded=0;exitX=1;exitY=0.5;exitDx=0;exitDy=0;" parent="1" source="T7yRqZnU3iM2HwVuO0ZW-74" edge="1">
          <mxGeometry relative="1" as="geometry">
            <mxPoint x="810" y="160" as="sourcePoint" />
            <mxPoint x="850" y="160" as="targetPoint" />
          </mxGeometry>
        </mxCell>
        <mxCell id="T7yRqZnU3iM2HwVuO0ZW-48" value="&lt;div&gt;Tiene&lt;/div&gt;" style="shape=rhombus;perimeter=rhombusPerimeter;whiteSpace=wrap;html=1;align=center;" parent="1" vertex="1">
          <mxGeometry x="1080" y="130" width="120" height="60" as="geometry" />
        </mxCell>
        <mxCell id="T7yRqZnU3iM2HwVuO0ZW-49" value="" style="endArrow=none;html=1;rounded=0;entryX=1;entryY=0.5;entryDx=0;entryDy=0;" parent="1" source="T7yRqZnU3iM2HwVuO0ZW-48" target="T7yRqZnU3iM2HwVuO0ZW-74" edge="1">
          <mxGeometry relative="1" as="geometry">
            <mxPoint x="820" y="250" as="sourcePoint" />
            <mxPoint x="1030" y="160" as="targetPoint" />
          </mxGeometry>
        </mxCell>
        <mxCell id="T7yRqZnU3iM2HwVuO0ZW-50" value="" style="endArrow=none;html=1;rounded=0;entryX=1;entryY=0.5;entryDx=0;entryDy=0;exitX=0;exitY=0.5;exitDx=0;exitDy=0;" parent="1" target="T7yRqZnU3iM2HwVuO0ZW-48" edge="1" source="T7yRqZnU3iM2HwVuO0ZW-73">
          <mxGeometry relative="1" as="geometry">
            <mxPoint x="1610" y="160" as="sourcePoint" />
            <mxPoint x="1380" y="240" as="targetPoint" />
          </mxGeometry>
        </mxCell>
        <mxCell id="T7yRqZnU3iM2HwVuO0ZW-51" value="N:N" style="text;strokeColor=none;fillColor=none;spacingLeft=4;spacingRight=4;overflow=hidden;rotatable=0;points=[[0,0.5],[1,0.5]];portConstraint=eastwest;fontSize=12;" parent="1" vertex="1">
          <mxGeometry x="1120" y="100" width="40" height="30" as="geometry" />
        </mxCell>
        <mxCell id="T7yRqZnU3iM2HwVuO0ZW-54" value="precio" style="ellipse;whiteSpace=wrap;html=1;align=center;" parent="1" vertex="1">
          <mxGeometry x="1640" y="80" width="120" height="40" as="geometry" />
        </mxCell>
        <mxCell id="T7yRqZnU3iM2HwVuO0ZW-58" value="" style="endArrow=none;html=1;rounded=0;entryX=1;entryY=0.5;entryDx=0;entryDy=0;exitX=0;exitY=0.5;exitDx=0;exitDy=0;" parent="1" source="T7yRqZnU3iM2HwVuO0ZW-54" target="T7yRqZnU3iM2HwVuO0ZW-73" edge="1">
          <mxGeometry relative="1" as="geometry">
            <mxPoint x="1370" y="225" as="sourcePoint" />
            <mxPoint x="1500" y="185" as="targetPoint" />
          </mxGeometry>
        </mxCell>
        <mxCell id="T7yRqZnU3iM2HwVuO0ZW-59" value="" style="endArrow=none;html=1;rounded=0;entryX=0;entryY=0.5;entryDx=0;entryDy=0;exitX=1;exitY=0.5;exitDx=0;exitDy=0;" parent="1" target="tv96Jki3CPS9pCuUoSKa-15" edge="1" source="T7yRqZnU3iM2HwVuO0ZW-73">
          <mxGeometry relative="1" as="geometry">
            <mxPoint x="1500" y="185" as="sourcePoint" />
            <mxPoint x="1620" y="239.9999999999999" as="targetPoint" />
          </mxGeometry>
        </mxCell>
        <mxCell id="T7yRqZnU3iM2HwVuO0ZW-69" value="" style="endArrow=none;html=1;rounded=0;exitX=0.5;exitY=0;exitDx=0;exitDy=0;" parent="1" source="T7yRqZnU3iM2HwVuO0ZW-73" target="tv96Jki3CPS9pCuUoSKa-16" edge="1">
          <mxGeometry relative="1" as="geometry">
            <mxPoint x="1500" y="110" as="sourcePoint" />
            <mxPoint x="1500" y="80" as="targetPoint" />
          </mxGeometry>
        </mxCell>
        <mxCell id="T7yRqZnU3iM2HwVuO0ZW-72" value="Cliente" style="whiteSpace=wrap;html=1;align=center;" parent="1" vertex="1">
          <mxGeometry x="240" y="140" width="120" height="40" as="geometry" />
        </mxCell>
        <mxCell id="T7yRqZnU3iM2HwVuO0ZW-73" value="Articulo" style="whiteSpace=wrap;html=1;align=center;" parent="1" vertex="1">
          <mxGeometry x="1440" y="140" width="120" height="40" as="geometry" />
        </mxCell>
        <mxCell id="T7yRqZnU3iM2HwVuO0ZW-75" value="FÃ¡brica" style="whiteSpace=wrap;html=1;align=center;" parent="1" vertex="1">
          <mxGeometry x="1440" y="410" width="120" height="40" as="geometry" />
        </mxCell>
        <mxCell id="T7yRqZnU3iM2HwVuO0ZW-76" value="&lt;div&gt;Fabrica&lt;/div&gt;" style="shape=rhombus;perimeter=rhombusPerimeter;whiteSpace=wrap;html=1;align=center;" parent="1" vertex="1">
          <mxGeometry x="1440" y="270" width="120" height="60" as="geometry" />
        </mxCell>
        <mxCell id="T7yRqZnU3iM2HwVuO0ZW-79" value="" style="endArrow=none;html=1;rounded=0;exitX=0.5;exitY=0;exitDx=0;exitDy=0;entryX=0.5;entryY=1;entryDx=0;entryDy=0;" parent="1" source="T7yRqZnU3iM2HwVuO0ZW-75" edge="1" target="T7yRqZnU3iM2HwVuO0ZW-76">
          <mxGeometry relative="1" as="geometry">
            <mxPoint x="1500" y="450" as="sourcePoint" />
            <mxPoint x="1500" y="390" as="targetPoint" />
          </mxGeometry>
        </mxCell>
        <mxCell id="T7yRqZnU3iM2HwVuO0ZW-81" value="N:N" style="text;strokeColor=none;fillColor=none;spacingLeft=4;spacingRight=4;overflow=hidden;rotatable=0;points=[[0,0.5],[1,0.5]];portConstraint=eastwest;fontSize=12;" parent="1" vertex="1">
          <mxGeometry x="1560" y="285" width="40" height="30" as="geometry" />
        </mxCell>
        <mxCell id="T7yRqZnU3iM2HwVuO0ZW-85" value="numFabrica" style="ellipse;whiteSpace=wrap;html=1;align=center;fontStyle=4;" parent="1" vertex="1">
          <mxGeometry x="1240" y="410" width="120" height="40" as="geometry" />
        </mxCell>
        <mxCell id="T7yRqZnU3iM2HwVuO0ZW-87" value="&lt;div&gt;telefono&lt;/div&gt;" style="ellipse;whiteSpace=wrap;html=1;align=center;" parent="1" vertex="1">
          <mxGeometry x="1640" y="410" width="120" height="40" as="geometry" />
        </mxCell>
        <mxCell id="T7yRqZnU3iM2HwVuO0ZW-88" value="" style="endArrow=none;html=1;rounded=0;" parent="1" edge="1">
          <mxGeometry relative="1" as="geometry">
            <mxPoint x="1560" y="430" as="sourcePoint" />
            <mxPoint x="1640" y="430" as="targetPoint" />
          </mxGeometry>
        </mxCell>
        <mxCell id="T7yRqZnU3iM2HwVuO0ZW-89" value="" style="endArrow=none;html=1;rounded=0;entryX=0;entryY=0.5;entryDx=0;entryDy=0;" parent="1" target="T7yRqZnU3iM2HwVuO0ZW-75" edge="1">
          <mxGeometry relative="1" as="geometry">
            <mxPoint x="1360" y="430" as="sourcePoint" />
            <mxPoint x="1520" y="430" as="targetPoint" />
          </mxGeometry>
        </mxCell>
        <mxCell id="tv96Jki3CPS9pCuUoSKa-2" value="1:N" style="text;strokeColor=none;fillColor=none;spacingLeft=4;spacingRight=4;overflow=hidden;rotatable=0;points=[[0,0.5],[1,0.5]];portConstraint=eastwest;fontSize=12;" vertex="1" parent="1">
          <mxGeometry x="510" y="100" width="40" height="30" as="geometry" />
        </mxCell>
        <mxCell id="T7yRqZnU3iM2HwVuO0ZW-74" value="&lt;div&gt;Pedido&lt;/div&gt;" style="whiteSpace=wrap;html=1;align=center;" parent="1" vertex="1">
          <mxGeometry x="720" y="140" width="120" height="40" as="geometry" />
        </mxCell>
        <mxCell id="tv96Jki3CPS9pCuUoSKa-3" value="" style="endArrow=none;html=1;rounded=0;exitX=1;exitY=0.5;exitDx=0;exitDy=0;" edge="1" parent="1" source="T7yRqZnU3iM2HwVuO0ZW-5" target="T7yRqZnU3iM2HwVuO0ZW-74">
          <mxGeometry relative="1" as="geometry">
            <mxPoint x="590" y="160" as="sourcePoint" />
            <mxPoint x="910" y="160" as="targetPoint" />
          </mxGeometry>
        </mxCell>
        <mxCell id="tv96Jki3CPS9pCuUoSKa-4" value="idPedido" style="ellipse;whiteSpace=wrap;html=1;align=center;fontStyle=4;" vertex="1" parent="1">
          <mxGeometry x="720" y="40" width="120" height="40" as="geometry" />
        </mxCell>
        <mxCell id="tv96Jki3CPS9pCuUoSKa-5" value="" style="endArrow=none;html=1;rounded=0;exitX=0.5;exitY=0;exitDx=0;exitDy=0;" edge="1" parent="1" source="T7yRqZnU3iM2HwVuO0ZW-74" target="tv96Jki3CPS9pCuUoSKa-4">
          <mxGeometry relative="1" as="geometry">
            <mxPoint x="620" y="80" as="sourcePoint" />
            <mxPoint x="780" y="80" as="targetPoint" />
          </mxGeometry>
        </mxCell>
        <mxCell id="tv96Jki3CPS9pCuUoSKa-6" value="direccionCliente" style="ellipse;whiteSpace=wrap;html=1;align=center;" vertex="1" parent="1">
          <mxGeometry x="600" y="240" width="120" height="40" as="geometry" />
        </mxCell>
        <mxCell id="tv96Jki3CPS9pCuUoSKa-7" value="" style="endArrow=none;html=1;rounded=0;exitX=0.5;exitY=0;exitDx=0;exitDy=0;" edge="1" parent="1" source="tv96Jki3CPS9pCuUoSKa-6" target="T7yRqZnU3iM2HwVuO0ZW-74">
          <mxGeometry relative="1" as="geometry">
            <mxPoint x="780" y="230" as="sourcePoint" />
            <mxPoint x="780" y="180" as="targetPoint" />
          </mxGeometry>
        </mxCell>
        <mxCell id="tv96Jki3CPS9pCuUoSKa-8" value="&lt;div&gt;fechaPedido&lt;/div&gt;" style="ellipse;whiteSpace=wrap;html=1;align=center;" vertex="1" parent="1">
          <mxGeometry x="840" y="240" width="120" height="40" as="geometry" />
        </mxCell>
        <mxCell id="tv96Jki3CPS9pCuUoSKa-9" value="" style="endArrow=none;html=1;rounded=0;entryX=0.5;entryY=0;entryDx=0;entryDy=0;exitX=0.669;exitY=1.039;exitDx=0;exitDy=0;exitPerimeter=0;" edge="1" parent="1" source="T7yRqZnU3iM2HwVuO0ZW-74" target="tv96Jki3CPS9pCuUoSKa-8">
          <mxGeometry relative="1" as="geometry">
            <mxPoint x="800" y="180" as="sourcePoint" />
            <mxPoint x="960" y="180" as="targetPoint" />
          </mxGeometry>
        </mxCell>
        <mxCell id="tv96Jki3CPS9pCuUoSKa-11" value="precio" style="ellipse;whiteSpace=wrap;html=1;align=center;" vertex="1" parent="1">
          <mxGeometry x="1000" y="240" width="120" height="40" as="geometry" />
        </mxCell>
        <mxCell id="tv96Jki3CPS9pCuUoSKa-12" value="cantidad" style="ellipse;whiteSpace=wrap;html=1;align=center;" vertex="1" parent="1">
          <mxGeometry x="1160" y="240" width="120" height="40" as="geometry" />
        </mxCell>
        <mxCell id="tv96Jki3CPS9pCuUoSKa-13" value="" style="endArrow=none;html=1;rounded=0;entryX=0;entryY=1;entryDx=0;entryDy=0;" edge="1" parent="1" source="tv96Jki3CPS9pCuUoSKa-11" target="T7yRqZnU3iM2HwVuO0ZW-48">
          <mxGeometry relative="1" as="geometry">
            <mxPoint x="1070" y="240" as="sourcePoint" />
            <mxPoint x="1230" y="240" as="targetPoint" />
          </mxGeometry>
        </mxCell>
        <mxCell id="tv96Jki3CPS9pCuUoSKa-14" value="" style="endArrow=none;html=1;rounded=0;exitX=1;exitY=1;exitDx=0;exitDy=0;" edge="1" parent="1" source="T7yRqZnU3iM2HwVuO0ZW-48" target="tv96Jki3CPS9pCuUoSKa-12">
          <mxGeometry relative="1" as="geometry">
            <mxPoint x="1160" y="160" as="sourcePoint" />
            <mxPoint x="1330" y="170" as="targetPoint" />
          </mxGeometry>
        </mxCell>
        <mxCell id="tv96Jki3CPS9pCuUoSKa-15" value="&lt;div&gt;descripcion&lt;/div&gt;" style="ellipse;whiteSpace=wrap;html=1;align=center;" vertex="1" parent="1">
          <mxGeometry x="1640" y="200" width="120" height="40" as="geometry" />
        </mxCell>
        <mxCell id="tv96Jki3CPS9pCuUoSKa-16" value="&lt;div&gt;numArticulo&lt;/div&gt;" style="ellipse;whiteSpace=wrap;html=1;align=center;fontStyle=4;" vertex="1" parent="1">
          <mxGeometry x="1440" y="40" width="120" height="40" as="geometry" />
        </mxCell>
        <mxCell id="tv96Jki3CPS9pCuUoSKa-18" value="" style="endArrow=none;html=1;rounded=0;entryX=0.5;entryY=1;entryDx=0;entryDy=0;exitX=0.5;exitY=0;exitDx=0;exitDy=0;" edge="1" parent="1" source="T7yRqZnU3iM2HwVuO0ZW-76" target="T7yRqZnU3iM2HwVuO0ZW-73">
          <mxGeometry relative="1" as="geometry">
            <mxPoint x="1390" y="300" as="sourcePoint" />
            <mxPoint x="1550" y="300" as="targetPoint" />
          </mxGeometry>
        </mxCell>
        <mxCell id="tv96Jki3CPS9pCuUoSKa-20" value="cantidad" style="ellipse;whiteSpace=wrap;html=1;align=center;" vertex="1" parent="1">
          <mxGeometry x="1280" y="280" width="120" height="40" as="geometry" />
        </mxCell>
        <mxCell id="tv96Jki3CPS9pCuUoSKa-21" value="" style="endArrow=none;html=1;rounded=0;entryX=0;entryY=0.5;entryDx=0;entryDy=0;exitX=1;exitY=0.5;exitDx=0;exitDy=0;" edge="1" parent="1" source="tv96Jki3CPS9pCuUoSKa-20" target="T7yRqZnU3iM2HwVuO0ZW-76">
          <mxGeometry relative="1" as="geometry">
            <mxPoint x="1350" y="380" as="sourcePoint" />
            <mxPoint x="1520" y="380" as="targetPoint" />
          </mxGeometry>
        </mxCell>
        <mxCell id="tv96Jki3CPS9pCuUoSKa-22" value="direccionCliente" style="ellipse;whiteSpace=wrap;html=1;align=center;" vertex="1" parent="1">
          <mxGeometry x="240" y="40" width="120" height="40" as="geometry" />
        </mxCell>
      </root>
    </mxGraphModel>
  </diagram>
</mxfile>
